HIERARCHY
ROOT joint_Root
{
	OFFSET 0.0 0.0 0.0
	CHANNELS 6 Xposition Yposition Zposition Zrotation Xrotation Yrotation 
	JOINT Hips
	{
		OFFSET -17.1583 93.1646 452.98
		CHANNELS 6 Xposition Yposition Zposition Zrotation Xrotation Yrotation 
		JOINT Spine
		{
			OFFSET 15.7357 0.0 0.0
			CHANNELS 6 Xposition Yposition Zposition Zrotation Xrotation Yrotation 
			JOINT Chest
			{
				OFFSET 8.98455 -0.406207 0.0
				CHANNELS 6 Xposition Yposition Zposition Zrotation Xrotation Yrotation 
				JOINT Neck
				{
					OFFSET 16.3773 0.0 0.0
					CHANNELS 6 Xposition Yposition Zposition Zrotation Xrotation Yrotation 
					JOINT Head
					{
						OFFSET 6.45672 0.0 0.0
						CHANNELS 6 Xposition Yposition Zposition Zrotation Xrotation Yrotation 
						End Site
						{
							OFFSET 0.0 0.0 0.0
						}
					}
				}
				JOINT Shoulder_L
				{
					OFFSET 12.9942 -0.242716 4.98039
					CHANNELS 6 Xposition Yposition Zposition Zrotation Xrotation Yrotation 
					JOINT UpperArm_L
					{
						OFFSET 5.34809 0.0 0.0
						CHANNELS 6 Xposition Yposition Zposition Zrotation Xrotation Yrotation 
						JOINT LowerArm_L
						{
							OFFSET 24.3286 1.87007e-05 0.0
							CHANNELS 6 Xposition Yposition Zposition Zrotation Xrotation Yrotation 
							JOINT Hand_L
							{
								OFFSET 22.2916 0.0 0.0
								CHANNELS 6 Xposition Yposition Zposition Zrotation Xrotation Yrotation 
								End Site
								{
									OFFSET 0.0 0.0 0.0
								}
							}
						}
					}
				}
				JOINT Shoulder_R
				{
					OFFSET 12.9945 -0.242716 -4.98039
					CHANNELS 6 Xposition Yposition Zposition Zrotation Xrotation Yrotation 
					JOINT UpperArm_R
					{
						OFFSET -5.34813 0.0 0.0
						CHANNELS 6 Xposition Yposition Zposition Zrotation Xrotation Yrotation 
						JOINT LowerArm_R
						{
							OFFSET -24.3289 0.000322201 0.0
							CHANNELS 6 Xposition Yposition Zposition Zrotation Xrotation Yrotation 
							JOINT Hand_R
							{
								OFFSET -22.2915 -0.000108084 0.0
								CHANNELS 6 Xposition Yposition Zposition Zrotation Xrotation Yrotation 
								End Site
								{
									OFFSET 0.0 0.0 0.0
								}
							}
						}
					}
				}
			}
		}
		JOINT UpperLeg_L
		{
			OFFSET -2.19248 -6.46944 0.0
			CHANNELS 6 Xposition Yposition Zposition Zrotation Xrotation Yrotation 
			JOINT LowerLeg_L
			{
				OFFSET 39.0811 0.0 -1.23785e-05
				CHANNELS 6 Xposition Yposition Zposition Zrotation Xrotation Yrotation 
				JOINT Foot_L
				{
					OFFSET 40.9854 0.0 -1.26872e-05
					CHANNELS 6 Xposition Yposition Zposition Zrotation Xrotation Yrotation 
					JOINT Toes_L
					{
						OFFSET 11.7543 0.0 0.0
						CHANNELS 6 Xposition Yposition Zposition Zrotation Xrotation Yrotation 
						End Site
						{
							OFFSET 0.0 0.0 0.0
						}
					}
				}
			}
		}
		JOINT UpperLeg_R
		{
			OFFSET -2.19251 6.46944 0.0
			CHANNELS 6 Xposition Yposition Zposition Zrotation Xrotation Yrotation 
			JOINT LowerLeg_R
			{
				OFFSET -39.0811 -0.00228153 -0.0401928
				CHANNELS 6 Xposition Yposition Zposition Zrotation Xrotation Yrotation 
				JOINT Foot_R
				{
					OFFSET -40.9854 0.0 0.0
					CHANNELS 6 Xposition Yposition Zposition Zrotation Xrotation Yrotation 
					JOINT Toes_R
					{
						OFFSET -11.7543 0.0 0.0
						CHANNELS 6 Xposition Yposition Zposition Zrotation Xrotation Yrotation 
						End Site
						{
							OFFSET 0.0 0.0 0.0
						}
					}
				}
			}
		}
	}
}
MOTION
Frames:	8
Frame Time:	0.0333333
0.000000 0.000000 0.000000 0.000000 0.000000 -0.000000 157.138000 92.312900 223.647000 97.029200 -56.943500 0.819097 15.735700 0.000005 -0.000001 27.279800 85.884200 -28.330100 8.984550 -0.406207 -0.000000 -4.074850 -7.202630 -2.360050 16.377300 -0.000001 -0.000001 -2.081960 -2.267660 -8.120910 6.456720 -0.000001 -0.000000 0.391242 -5.490480 -4.032060 12.994200 -0.242716 4.980390 -91.453000 4.580130 -72.377300 5.348090 -0.000007 -0.000001 -55.604000 -19.487300 -28.287500 24.328600 0.000019 0.000005 20.085100 10.996000 -62.447700 22.291600 -0.000001 0.000005 12.479600 4.869600 9.978430 12.994500 -0.242716 -4.980390 89.867700 0.397822 -71.605300 -5.348130 -0.000001 -0.000004 -46.253600 -12.725700 20.545400 -24.328900 0.000322 -0.000009 0.183485 1.394730 -7.538000 -22.291500 -0.000108 -0.000004 13.142000 5.214700 2.349480 -2.192480 -6.469440 -0.000000 -174.834000 -17.934200 5.890280 39.081100 -0.000007 -0.000012 -0.016935 0.072146 13.209800 40.985400 -0.000006 -0.000013 -14.302800 13.392800 -55.378800 11.754300 -0.000000 0.000003 -0.014243 -0.133011 -22.002500 -2.192510 6.469440 -0.000001 -173.303000 4.504190 153.784000 -39.081100 -0.002282 -0.040193 -0.007472 0.043787 13.860900 -40.985400 0.000008 0.000006 1.273370 -8.071950 -62.140200 -11.754300 -0.000006 -0.000006 0.001408 0.139098 -10.932400
0.000000 0.000000 0.000000 0.000000 0.000000 -0.000000 154.330000 91.420200 226.110000 97.114300 -57.370600 0.752354 15.735700 0.000005 -0.000001 25.240200 85.658500 -26.138800 8.984550 -0.406207 -0.000000 -4.143260 -7.755080 -2.081040 16.377300 -0.000001 -0.000001 -2.391380 -2.224250 -7.722330 6.456720 -0.000001 -0.000000 -0.200738 -4.888940 -3.975650 12.994200 -0.242716 4.980390 -91.424800 4.524900 -72.502000 5.348090 -0.000007 -0.000001 -58.335400 -20.438000 -30.398400 24.328600 0.000019 0.000005 24.354500 9.717480 -69.547700 22.291600 -0.000001 0.000005 14.385100 4.881940 9.738040 12.994500 -0.242716 -4.980390 89.941200 0.178232 -71.751200 -5.348130 -0.000001 -0.000004 -42.151300 -16.707200 21.731400 -24.328900 0.000322 -0.000009 0.236458 2.491610 -5.454920 -22.291500 -0.000108 -0.000004 22.871000 5.191790 2.894000 -2.192480 -6.469440 -0.000000 -175.134000 -16.315300 6.499570 39.081100 -0.000007 -0.000012 -0.030824 0.104636 16.414000 40.985400 -0.000006 -0.000013 -12.919200 11.580800 -57.508300 11.754300 -0.000000 0.000003 -0.026175 -0.199376 -24.736400 -2.192510 6.469440 -0.000001 -172.289000 4.953660 153.643000 -39.081100 -0.002282 -0.040193 -0.005123 0.059219 8.134600 -40.985400 0.000008 0.000006 1.557960 -9.487750 -63.005200 -11.754300 -0.000006 -0.000006 0.001263 0.142669 -10.787500
0.000000 0.000000 0.000000 0.000000 0.000000 -0.000000 150.955000 90.552000 228.664000 96.454300 -57.518800 -0.079034 15.735700 0.000005 -0.000001 22.774100 85.628500 -23.325000 8.984550 -0.406207 -0.000000 -4.442580 -7.996110 -1.414400 16.377300 -0.000001 -0.000001 -2.503560 -2.430540 -7.281650 6.456720 -0.000001 -0.000000 -0.740688 -4.595620 -4.341300 12.994200 -0.242716 4.980390 -91.603900 5.162840 -72.715800 5.348090 -0.000007 -0.000001 -60.682500 -19.327500 -31.113800 24.328600 0.000019 0.000005 27.572900 8.093390 -74.910200 22.291600 -0.000001 0.000005 16.990800 4.921520 8.947820 12.994500 -0.242716 -4.980390 89.865800 0.409565 -71.858800 -5.348130 -0.000001 -0.000004 -39.344900 -19.019400 22.598400 -24.328900 0.000322 -0.000009 0.302898 5.007510 -3.478980 -22.291500 -0.000108 -0.000004 32.294900 5.052280 6.139100 -2.192480 -6.469440 -0.000000 -174.489000 -15.650400 7.187600 39.081100 -0.000007 -0.000012 -0.038426 0.108467 19.507400 40.985400 -0.000006 -0.000013 -12.181800 10.974800 -57.646300 11.754300 -0.000000 0.000003 -0.050992 -0.301294 -28.989900 -2.192510 6.469440 -0.000001 -169.669000 8.213940 152.025000 -39.081100 -0.002282 -0.040193 -0.003672 0.049696 8.033820 -40.985400 0.000008 0.000006 0.945548 -10.475800 -63.991500 -11.754300 -0.000006 -0.000006 0.001400 0.139298 -10.924300
0.000000 0.000000 0.000000 0.000000 0.000000 -0.000000 147.055000 89.756700 231.283000 95.127300 -57.549900 -1.928170 15.735700 0.000005 -0.000001 17.775400 85.800200 -17.823200 8.984550 -0.406207 -0.000000 -5.232770 -7.984150 -0.461328 16.377300 -0.000001 -0.000001 -2.480490 -2.590410 -6.960340 6.456720 -0.000001 -0.000000 -1.075320 -4.600400 -4.578320 12.994200 -0.242716 4.980390 -91.860200 6.036900 -72.838400 5.348090 -0.000007 -0.000001 -62.573600 -16.356900 -29.886200 24.328600 0.000019 0.000005 29.646700 6.556580 -78.655500 22.291600 -0.000001 0.000005 19.287900 4.957270 8.216000 12.994500 -0.242716 -4.980390 89.856800 0.434905 -71.780400 -5.348130 -0.000001 -0.000004 -38.869700 -20.174900 23.505100 -24.328900 0.000322 -0.000009 0.355618 5.806890 -3.520670 -22.291500 -0.000108 -0.000004 37.628600 4.853220 10.295400 -2.192480 -6.469440 -0.000000 -173.279000 -15.238200 7.185620 39.081100 -0.000007 -0.000012 -0.024463 0.057737 22.962000 40.985400 -0.000006 -0.000013 -11.714100 10.833600 -55.614000 11.754300 -0.000000 0.000003 -0.101475 -0.448213 -35.291200 -2.192510 6.469440 -0.000001 -167.191000 10.320300 150.793000 -39.081100 -0.002282 -0.040193 -0.016088 0.114472 9.632290 -40.985400 0.000008 0.000006 3.368290 -11.319600 -62.179400 -11.754300 -0.000006 -0.000006 0.001443 0.138177 -10.969800
0.000000 0.000000 0.000000 0.000000 0.000000 -0.000000 142.729000 89.045400 233.840000 92.675700 -57.815600 -5.279670 15.735700 0.000005 -0.000001 9.190040 86.224100 -8.518290 8.984550 -0.406207 -0.000000 -6.547400 -7.525290 0.915892 16.377300 -0.000001 -0.000001 -2.381920 -2.809630 -6.864800 6.456720 -0.000001 -0.000000 -1.148750 -4.754890 -4.429870 12.994200 -0.242716 4.980390 -92.193700 7.034450 -72.631400 5.348090 -0.000007 -0.000001 -64.213300 -11.849400 -27.174600 24.328600 0.000019 0.000005 30.951100 5.764170 -80.492600 22.291600 -0.000001 0.000005 19.560600 4.979300 7.755990 12.994500 -0.242716 -4.980390 89.819500 0.535607 -71.373100 -5.348130 -0.000001 -0.000004 -39.733100 -21.199900 23.956200 -24.328900 0.000322 -0.000009 0.333260 5.257850 -3.642940 -22.291500 -0.000108 -0.000004 36.012200 4.866070 10.032000 -2.192480 -6.469440 -0.000000 -171.582000 -14.769300 5.661450 39.081100 -0.000007 -0.000012 0.033497 -0.064286 27.522200 40.985400 -0.000006 -0.000013 -12.071000 9.978190 -50.812400 11.754300 -0.000000 0.000003 -0.199627 -0.644494 -44.197600 -2.192510 6.469440 -0.000001 -164.929000 9.496910 147.133000 -39.081100 -0.002282 -0.040193 -0.021047 0.078286 17.293300 -40.985400 0.000008 0.000006 12.444800 -11.493700 -56.452500 -11.754300 -0.000006 -0.000006 0.001620 0.133386 -11.164100
0.000000 0.000000 0.000000 0.000000 0.000000 -0.000000 138.031000 88.345900 236.482000 89.903800 -58.780900 -7.040930 15.735700 0.000005 -0.000001 9.843730 86.742600 -8.516930 8.984550 -0.406207 -0.000000 -6.599140 -6.573380 2.280440 16.377300 -0.000001 -0.000001 -2.462470 -2.790820 -6.582470 6.456720 -0.000001 -0.000000 -0.981490 -4.952150 -4.041150 12.994200 -0.242716 4.980390 -92.597800 8.091320 -72.133300 5.348090 -0.000007 -0.000001 -65.789400 -6.889550 -23.412400 24.328600 0.000019 0.000005 32.383700 6.142050 -80.424700 22.291600 -0.000001 0.000005 16.532600 5.002720 7.259130 12.994500 -0.242716 -4.980390 89.549100 1.302070 -70.897200 -5.348130 -0.000001 -0.000004 -41.493200 -21.912400 22.804400 -24.328900 0.000322 -0.000009 0.152407 2.896570 -3.032210 -22.291500 -0.000108 -0.000004 29.027500 4.995020 7.412540 -2.192480 -6.469440 -0.000000 -169.472000 -13.737700 4.546960 39.081100 -0.000007 -0.000012 0.134741 -0.198777 34.131200 40.985400 -0.000006 -0.000013 -11.843800 9.352240 -43.085000 11.754300 -0.000000 0.000003 -0.244584 -0.714499 -47.571300 -2.192510 6.469440 -0.000001 -164.525000 7.102390 146.023000 -39.081100 -0.002282 -0.040193 0.052002 -0.093379 27.540900 -40.985400 0.000008 0.000006 12.703800 -13.161600 -60.740700 -11.754300 -0.000006 -0.000006 0.001061 0.147338 -10.598100
0.000000 0.000000 0.000000 0.000000 0.000000 -0.000000 133.548000 87.663600 239.072000 88.279600 -60.930500 -6.073760 15.735700 0.000005 -0.000001 26.453600 87.052400 -24.837200 8.984550 -0.406207 -0.000000 -5.073150 -5.453160 2.995680 16.377300 -0.000001 -0.000001 -2.710730 -2.462370 -5.693190 6.456720 -0.000001 -0.000000 -1.074380 -4.514480 -3.637250 12.994200 -0.242716 4.980390 -92.835400 8.739150 -71.945600 5.348090 -0.000007 -0.000001 -67.887500 -3.747310 -18.853000 24.328600 0.000019 0.000005 34.802400 8.005920 -78.670600 22.291600 -0.000001 0.000005 10.826700 5.051790 6.186990 12.994500 -0.242716 -4.980390 89.214500 2.234400 -70.625000 -5.348130 -0.000001 -0.000004 -45.928100 -21.523800 18.658900 -24.328900 0.000322 -0.000009 0.095581 2.117390 -2.613200 -22.291500 -0.000108 -0.000004 19.867600 4.999970 7.327340 -2.192480 -6.469440 -0.000000 -168.498000 -11.806800 2.843550 39.081100 -0.000007 -0.000012 0.255155 -0.268400 43.550700 40.985400 -0.000006 -0.000013 -11.720400 8.643700 -34.263200 11.754300 -0.000000 0.000003 -0.084874 -0.405375 -33.428500 -2.192510 6.469440 -0.000001 -164.353000 7.456810 148.222000 -39.081100 -0.002282 -0.040193 0.137382 -0.188168 35.474600 -40.985400 0.000008 0.000006 10.590600 -12.409500 -67.473600 -11.754300 -0.000006 -0.000006 -0.001123 0.184803 -9.076660
0.000000 0.000000 0.000000 0.000000 0.000000 -0.000000 129.598000 86.981200 241.089000 85.933500 -62.003500 -6.116650 15.735700 0.000005 -0.000001 39.424900 86.800700 -37.361800 8.984550 -0.406207 -0.000000 -3.613480 -5.144630 3.967300 16.377300 -0.000001 -0.000001 -2.505770 -2.141850 -5.243610 6.456720 -0.000001 -0.000000 -1.238440 -4.158110 -2.895570 12.994200 -0.242716 4.980390 -93.175100 9.594000 -71.590500 5.348090 -0.000007 -0.000001 -69.193400 -0.511886 -15.095100 24.328600 0.000019 0.000005 35.214100 12.703300 -72.694400 22.291600 -0.000001 0.000005 7.764160 5.119350 4.665290 12.994500 -0.242716 -4.980390 88.827900 3.262900 -70.229700 -5.348130 -0.000001 -0.000004 -52.156500 -18.080500 12.604000 -24.328900 0.000322 -0.000009 0.158325 3.005180 -3.035100 -22.291500 -0.000108 -0.000004 10.131700 4.984300 7.643640 -2.192480 -6.469440 -0.000000 -167.736000 -8.379880 -2.341740 39.081100 -0.000007 -0.000012 0.339079 -0.244251 54.233300 40.985400 -0.000006 -0.000013 -12.929300 8.006110 -24.431300 11.754300 -0.000000 0.000003 0.002052 0.048757 -14.599000 -2.192510 6.469440 -0.000001 -163.278000 11.153900 151.222000 -39.081100 -0.002282 -0.040193 0.271779 -0.319057 40.082400 -40.985400 0.000008 0.000006 10.535700 -9.232560 -73.232600 -11.754300 -0.000006 -0.000006 -0.002074 0.197312 -8.568090
